<?xml version="1.0" standalone="no"?>
<!DOCTYPE svg PUBLIC "-//W3C//DTD SVG 20010904//EN"
 "http://www.w3.org/TR/2001/REC-SVG-20010904/DTD/svg10.dtd">
<svg version="1.0" xmlns="http://www.w3.org/2000/svg"
 width="800" height="800" viewBox="0 0 610 608"
 preserveAspectRatio="xMidYMid meet">

<g transform="translate(0.000000,404.000000) scale(0.100000,-0.100000)"
fill="#000000" stroke="none">
<path d="M2950 3339 c-198 -39 -344 -236 -327 -442 12 -142 112 -283 244 -345
52 -24 69 -27 168 -27 103 0 114 2 177 32 221 104 305 379 182 589 -86 147
-270 227 -444 193z m212 -132 c90 -38 166 -145 175 -247 25 -273 -299 -434
-502 -249 -117 108 -133 278 -37 404 83 108 234 146 364 92z"/>
<path d="M2720 2473 c-121 -46 -153 -61 -200 -91 -102 -63 -167 -140 -201
-237 -15 -42 -19 -85 -20 -216 -1 -157 0 -164 21 -181 27 -22 40 -22 66 -4 17
13 19 31 24 183 5 163 6 170 34 221 48 87 134 152 261 198 l62 23 69 -27 c61
-23 84 -26 199 -26 117 -1 137 2 204 26 l75 27 73 -29 c127 -51 214 -126 256
-219 17 -39 22 -72 25 -204 4 -154 5 -159 29 -174 31 -20 70 -5 79 32 3 14 5
94 3 178 l-4 153 -37 76 c-50 100 -137 182 -252 238 -108 52 -184 69 -229 51
-17 -8 -63 -22 -102 -33 -87 -24 -196 -19 -282 13 -60 23 -127 32 -153 22z"/>
<path d="M2585 1996 c-17 -12 -19 -25 -17 -113 3 -153 13 -243 28 -258 18 -18
123 -41 254 -56 215 -24 589 11 631 61 12 14 18 54 23 182 7 159 7 163 -14
180 -29 23 -53 23 -75 -2 -14 -15 -18 -44 -23 -149 l-5 -130 -50 -11 c-101
-21 -254 -32 -377 -26 -117 7 -253 26 -266 38 -3 3 -8 63 -11 133 -5 106 -9
131 -25 147 -22 22 -47 23 -73 4z"/>
<path d="M370 1930 c-25 -25 -26 -52 -2 -74 11 -9 146 -48 323 -91 167 -42
316 -80 331 -86 39 -16 62 -56 60 -109 -2 -84 -82 -855 -93 -893 -7 -26 -21
-44 -42 -57 -30 -18 -52 -20 -294 -20 -250 0 -264 -1 -283 -20 -25 -25 -26
-52 -2 -73 16 -15 52 -17 297 -17 259 0 282 1 320 20 49 24 78 53 102 101 l18
36 512 -193 c736 -277 739 -278 848 -278 59 0 111 6 149 18 74 22 1653 897
1697 940 53 51 73 102 74 181 0 59 -5 78 -29 123 -48 87 -124 132 -223 132
-49 0 -116 -21 -438 -136 -209 -75 -388 -144 -397 -152 -35 -30 -9 -92 38 -92
10 0 187 61 393 135 206 74 387 135 403 135 128 0 191 -163 95 -247 -39 -34
-1556 -877 -1628 -904 -33 -13 -75 -19 -130 -19 -78 0 -92 4 -367 104 -318
116 -973 364 -980 371 -3 2 14 189 37 416 23 226 39 425 36 442 -12 55 -53
115 -98 141 -27 16 -157 53 -364 105 -178 45 -327 81 -333 81 -5 0 -19 -9 -30
-20z"/>
<path d="M1518 1759 c-101 -13 -255 -66 -269 -90 -14 -28 -4 -66 22 -80 16 -8
33 -6 77 10 157 58 309 66 465 27 52 -14 205 -69 339 -124 382 -157 507 -199
777 -262 93 -22 175 -47 190 -58 66 -49 89 -130 57 -206 -18 -43 -75 -86 -123
-93 -25 -3 -229 33 -607 108 -415 82 -573 109 -585 102 -9 -6 -20 -22 -26 -37
-19 -54 -13 -56 585 -175 344 -69 578 -111 615 -111 152 1 269 124 268 280 -1
76 -20 125 -69 180 -55 61 -88 76 -239 110 -277 63 -451 123 -891 303 -257
105 -423 138 -586 116z"/>
</g>
</svg>
